<?xml version="1.0" ?><svg fill="none" height="24" viewBox="0 0 24 24" width="24" xmlns="http://www.w3.org/2000/svg"><g id="Bus"><path clip-rule="evenodd" d="M2.25 3C2.25 1.48122 3.48122 0.25 5 0.25H19C20.5188 0.25 21.75 1.48122 21.75 3V19C21.75 20.5188 20.5188 21.75 19 21.75H5C3.48122 21.75 2.25 20.5188 2.25 19V3ZM5 1.75C4.30964 1.75 3.75 2.30964 3.75 3V19C3.75 19.6904 4.30964 20.25 5 20.25H19C19.6904 20.25 20.25 19.6904 20.25 19V3C20.25 2.30964 19.6904 1.75 19 1.75H5Z" fill="black" fill-rule="evenodd" id="Rectangle 11 (Stroke)"/><path clip-rule="evenodd" d="M2.25 4C2.25 3.58579 2.58579 3.25 3 3.25H21C21.4142 3.25 21.75 3.58579 21.75 4V13C21.75 13.4142 21.4142 13.75 21 13.75H3C2.58579 13.75 2.25 13.4142 2.25 13V4ZM3.75 4.75V12.25H20.25V4.75H3.75Z" fill="black" fill-rule="evenodd" id="Rectangle 14 (Stroke)"/><path clip-rule="evenodd" d="M4.25 21C4.25 20.5858 4.58579 20.25 5 20.25H8C8.41421 20.25 8.75 20.5858 8.75 21V22C8.75 22.9665 7.9665 23.75 7 23.75H6C5.0335 23.75 4.25 22.9665 4.25 22V21ZM5.75 21.75V22C5.75 22.1381 5.86193 22.25 6 22.25H7C7.13807 22.25 7.25 22.1381 7.25 22V21.75H5.75Z" fill="black" fill-rule="evenodd" id="Rectangle 12 (Stroke)"/><path clip-rule="evenodd" d="M15.25 21C15.25 20.5858 15.5858 20.25 16 20.25H19C19.4142 20.25 19.75 20.5858 19.75 21V22C19.75 22.9665 18.9665 23.75 18 23.75H17C16.0335 23.75 15.25 22.9665 15.25 22V21ZM16.75 21.75V22C16.75 22.1381 16.8619 22.25 17 22.25H18C18.1381 22.25 18.25 22.1381 18.25 22V21.75H16.75Z" fill="black" fill-rule="evenodd" id="Rectangle 17 (Stroke)"/><path clip-rule="evenodd" d="M20.25 6C20.25 5.58579 20.5858 5.25 21 5.25H22C22.9665 5.25 23.75 6.0335 23.75 7V10C23.75 10.4142 23.4142 10.75 23 10.75C22.5858 10.75 22.25 10.4142 22.25 10V7C22.25 6.86193 22.1381 6.75 22 6.75H21C20.5858 6.75 20.25 6.41421 20.25 6Z" fill="black" fill-rule="evenodd" id="Vector 14 (Stroke)"/><path clip-rule="evenodd" d="M3.75 6C3.75 5.58579 3.41421 5.25 3 5.25H2C1.0335 5.25 0.25 6.0335 0.25 7V10C0.25 10.4142 0.585786 10.75 1 10.75C1.41421 10.75 1.75 10.4142 1.75 10V7C1.75 6.86193 1.86193 6.75 2 6.75H3C3.41421 6.75 3.75 6.41421 3.75 6Z" fill="black" fill-rule="evenodd" id="Vector 15 (Stroke)"/><path clip-rule="evenodd" d="M2.25 15C2.25 14.5858 2.58579 14.25 3 14.25H5C6.51878 14.25 7.75 15.4812 7.75 17V18C7.75 18.4142 7.41421 18.75 7 18.75H3C2.58579 18.75 2.25 18.4142 2.25 18V15ZM3.75 15.75V17.25H6.25V17C6.25 16.3096 5.69036 15.75 5 15.75H3.75Z" fill="black" fill-rule="evenodd" id="Rectangle 18 (Stroke)"/><path clip-rule="evenodd" d="M21.75 15C21.75 14.5858 21.4142 14.25 21 14.25H19C17.4812 14.25 16.25 15.4812 16.25 17V18C16.25 18.4142 16.5858 18.75 17 18.75H21C21.4142 18.75 21.75 18.4142 21.75 18V15ZM20.25 15.75V17.25H17.75V17C17.75 16.3096 18.3096 15.75 19 15.75H20.25Z" fill="black" fill-rule="evenodd" id="Rectangle 19 (Stroke)"/><path clip-rule="evenodd" d="M10.25 18C10.25 17.5858 10.5858 17.25 11 17.25H13C13.4142 17.25 13.75 17.5858 13.75 18C13.75 18.4142 13.4142 18.75 13 18.75H11C10.5858 18.75 10.25 18.4142 10.25 18Z" fill="black" fill-rule="evenodd" id="Vector 16 (Stroke)"/></g></svg>